# xmcd CD database file
#
# Track frame offsets:
#	150
#	18206
#	33882
#	54987
#	75367
#	101648
#	120739
#	135770
#	150039
#	165425
#
# Disc length: 2470 seconds
#
# Revision: 0
# Processed by: cddbd v1.4PL0 Copyright (c) Steve Scherf et al.
# Submitted via: CDex 1.51
#
DISCID=5909a40a
DTITLE=PHOEBE SNOW - THE BEST OF PHOEBE SNOW
DYEAR=1981
DGENRE=Jazz
TTITLE0=TWO FISTED LOVE
TTITLE1=ALL OVER
TTITLE2=POETRY MAN
TTITLE3=TEACH ME TONIGHT
TTITLE4=DON'T LET ME DOWN
TTITLE5=SHAKEY GROUND
TTITLE6=LOVE MAKES A WOMAN
TTITLE7=NEVER LETTING GO
TTITLE8=EVERY NIGHT
TTITLE9=HARPO'S BLUES
EXTD=YEAR: 1981
EXTT0=
EXTT1=
EXTT2=
EXTT3=
EXTT4=
EXTT5=
EXTT6=
EXTT7=
EXTT8=
EXTT9=
PLAYORDER=
